<?xml version="1.0" encoding="iso-8859-1"?>
<!-- Generator: Adobe Illustrator 19.0.0, SVG Export Plug-In . SVG Version: 6.00 Build 0)  -->
<svg version="1.1" id="Layer_1" xmlns="http://www.w3.org/2000/svg" xmlns:xlink="http://www.w3.org/1999/xlink" x="0px" y="0px"
	 viewBox="0 0 512 512" style="enable-background:new 0 0 512 512;" xml:space="preserve">
<g>
	<g>
		<path d="M464,0H48C36.956,0,28,8.956,28,20v472c0,11.044,8.956,20,20,20h416c11.048,0,20-8.956,20-20V20
			C484,8.956,475.048,0,464,0z M211.996,16h88c4.416,0,8,3.584,8,8s-3.584,8-8,8h-88c-4.416,0-8-3.584-8-8S207.58,16,211.996,16z
			 M292,484c0,6.628-5.376,12-12,12h-48c-6.628,0-12-5.372-12-12v-16c0-6.628,5.372-12,12-12h48c6.624,0,12,5.372,12,12V484z
			 M468,436H44V48h424V436z"/>
	</g>
</g>
<g>
</g>
<g>
</g>
<g>
</g>
<g>
</g>
<g>
</g>
<g>
</g>
<g>
</g>
<g>
</g>
<g>
</g>
<g>
</g>
<g>
</g>
<g>
</g>
<g>
</g>
<g>
</g>
<g>
</g>
</svg>
